# xmcd
#
# Track frame offsets:
#	150
#	17481
#	33825
#	50220
#	69262
#	84543
#	101652
#	119241
#	136465
#	153927
#
# Disc length: 2240 seconds
#
# Revision: 0
# Processed by: cddbd v1.5.2PL0 Copyright (c) Steve Scherf et al.
# Submitted via: EasyCDDAExtractor 10.2.0.1
#
DISCID=8308be0a
DTITLE=ΓΙΑΝΝΙΑΣ - ΕΝΑ ΤΑΞΙΔΙ ΑΚΟΜΑ
DYEAR=2008
DGENRE=ΛΑΙΚΑ
TTITLE0=ΜΟΥ 'ΛΕΙΨΕ
TTITLE1=ΜΟΝΟ Η ΓΗ ΑΝ ΣΤΑΜΑΤΗΣΕΙ
TTITLE2=ΣΑΒΒΑΤΟ
TTITLE3=ΕΝΑ ΤΑΞΙΔΙ ΑΚΟΜΑ
TTITLE4=ΑΝ ΔΕΝ ΚΑΝΩ ΛΑΘΟΣ
TTITLE5=ΑΠΙΣΤΗ ΚΑΡΔΙΑ
TTITLE6=ΜΗ ΜΕ ΛΥΠΑΣΑΙ
TTITLE7=ΣΠΑΣΤΕ ΤΑ ΟΛΑ
TTITLE8=ΓΥΝΑΙΚΑ ΚΑΙ ΚΑΤΑΣΤΡΟΦΗ
TTITLE9=ΕΙΣΑΙ ΕΝΑ ΨΕΜΑ
EXTD=
EXTT0=
EXTT1=
EXTT2=
EXTT3=
EXTT4=
EXTT5=
EXTT6=
EXTT7=
EXTT8=
EXTT9=
PLAYORDER=
